<svg width="30" height="34" viewBox="0 0 30 34" fill="none" xmlns="http://www.w3.org/2000/svg">
<path d="M10.7051 1.1875C13.3718 -0.395833 16.7051 -0.395833 19.3718 1.1875C22.0384 2.77083 23.6051 5.6875 23.4884 8.77083V9.15417C25.5884 9.15417 27.8051 10.6208 28.5718 14.1875L29.8551 24.1708C30.8068 30.6875 27.0218 33.3375 21.9384 33.3375H8.12176C3.02343 33.3375 -0.878242 31.5042 0.171759 24.1708L1.47176 14.1875C1.67176 12.7042 2.38843 11.3208 3.50509 10.3042C4.35676 9.55583 5.45509 9.15417 6.58843 9.15417V8.77083C6.45509 5.6875 8.04009 2.77083 10.7051 1.1875ZM19.8218 14.5208C19.0068 14.5208 18.3384 15.1708 18.3384 15.9875C18.3384 16.7875 19.0068 17.4542 19.8218 17.4542C20.2051 17.4542 20.5884 17.3042 20.8551 17.0208C21.1384 16.7542 21.2884 16.3708 21.2884 15.9875C21.2884 15.1708 20.6218 14.5208 19.8218 14.5208ZM10.1551 14.5208C9.33842 14.5208 8.67176 15.1708 8.67176 15.9875C8.67176 16.7875 9.33842 17.4542 10.1551 17.4542C10.9718 17.4542 11.6218 16.7875 11.6218 15.9875C11.6218 15.1708 10.9718 14.5208 10.1551 14.5208ZM15.0051 2.90417C11.7551 2.90417 9.12176 5.5375 9.12176 8.77083V9.13917H20.9051V8.77083C20.9051 5.5375 18.2718 2.90417 15.0051 2.90417Z" fill="white"/>
</svg>
