<svg aria-hidden="true" style="position: absolute; width: 0; height: 0; overflow: hidden;" version="1.1" xmlns="http://www.w3.org/2000/svg" xmlns:xlink="http://www.w3.org/1999/xlink">
<defs>
<symbol id="icon-Star" viewBox="0 0 34 32">
<path d="M26.078 18.908c-0.426 0.4-0.622 0.99-0.523 1.552l1.456 7.871c0.116 0.672-0.162 1.342-0.737 1.728-0.557 0.4-1.294 0.448-1.917 0.128l-7.255-3.695c-0.264-0.128-0.542-0.209-0.819-0.209h-0.444c-0.164 0.016-0.31 0.082-0.442 0.144l-7.257 3.713c-0.36 0.176-0.77 0.24-1.163 0.176-0.983-0.192-1.62-1.089-1.458-2.033l1.458-7.871c0.098-0.574-0.098-1.15-0.523-1.566l-5.915-5.599c-0.491-0.48-0.672-1.169-0.441-1.808 0.213-0.626 0.768-1.089 1.456-1.2l8.141-1.153c0.622-0.064 1.163-0.43 1.441-0.974l3.587-7.183c0.082-0.16 0.197-0.306 0.329-0.432l0.146-0.112c0.066-0.082 0.164-0.144 0.264-0.208l0.179-0.064 0.278-0.112h0.69c0.622 0.064 1.163 0.43 1.442 0.958l3.635 7.152c0.262 0.528 0.77 0.88 1.36 0.974l8.141 1.153c0.688 0.096 1.263 0.56 1.491 1.2 0.213 0.638 0.033 1.344-0.475 1.808l-6.126 5.663z"></path>
</symbol>
<symbol id="icon-cart-bag" viewBox="0 0 28 32">
<path d="M10.075 1.118c2.51-1.49 5.647-1.49 8.157 0s3.984 4.235 3.874 7.137v0.361c1.976 0 4.063 1.38 4.784 4.737l1.208 9.396c0.896 6.133-2.667 8.627-7.451 8.627h-13.004c-4.798 0-8.471-1.725-7.482-8.627l1.224-9.396c0.188-1.396 0.863-2.698 1.914-3.655 0.802-0.704 1.835-1.082 2.902-1.082v-0.361c-0.125-2.902 1.366-5.647 3.874-7.137zM18.656 13.667c-0.767 0-1.396 0.612-1.396 1.38 0 0.753 0.629 1.38 1.396 1.38 0.361 0 0.721-0.141 0.973-0.408 0.267-0.251 0.408-0.612 0.408-0.973 0-0.769-0.627-1.38-1.38-1.38zM9.558 13.667c-0.769 0-1.396 0.612-1.396 1.38 0 0.753 0.627 1.38 1.396 1.38s1.38-0.627 1.38-1.38c0-0.769-0.612-1.38-1.38-1.38zM14.122 2.733c-3.059 0-5.537 2.478-5.537 5.522v0.347h11.090v-0.347c0-3.043-2.478-5.522-5.553-5.522z"></path>
</symbol>
<symbol id="icon-search" viewBox="0 0 32 32">
<path d="M27.613 25.72l-4.533-4.52c1.463-1.863 2.256-4.164 2.253-6.533 0-2.11-0.626-4.172-1.798-5.926s-2.838-3.121-4.787-3.929c-1.949-0.807-4.094-1.019-6.163-0.607s-3.97 1.427-5.461 2.919c-1.492 1.492-2.508 3.392-2.919 5.461s-0.2 4.214 0.607 6.163c0.807 1.949 2.175 3.615 3.929 4.787s3.816 1.798 5.926 1.798c2.369 0.003 4.67-0.791 6.533-2.253l4.52 4.533c0.124 0.125 0.271 0.224 0.434 0.292s0.337 0.103 0.513 0.103c0.176 0 0.35-0.035 0.513-0.103s0.31-0.167 0.434-0.292c0.125-0.124 0.224-0.271 0.292-0.434s0.103-0.337 0.103-0.513c0-0.176-0.035-0.35-0.103-0.513s-0.167-0.31-0.292-0.434zM6.667 14.667c0-1.582 0.469-3.129 1.348-4.445s2.128-2.341 3.59-2.946 3.070-0.764 4.622-0.455c1.552 0.309 2.977 1.071 4.096 2.189s1.881 2.544 2.189 4.096c0.309 1.552 0.15 3.16-0.455 4.622s-1.631 2.711-2.946 3.59c-1.316 0.879-2.862 1.348-4.445 1.348-2.122 0-4.157-0.843-5.657-2.343s-2.343-3.535-2.343-5.657z"></path>
</symbol>
<symbol id="icon-shopping-cart" viewBox="0 0 32 32">
<path d="M30.284 5.436c-0.375-0.45-0.845-0.812-1.375-1.060s-1.11-0.376-1.695-0.376h-21.557l-0.056-0.468c-0.115-0.973-0.582-1.87-1.314-2.521s-1.677-1.011-2.657-1.011h-0.296c-0.354 0-0.693 0.14-0.943 0.391s-0.391 0.589-0.391 0.943c0 0.354 0.14 0.693 0.391 0.943s0.589 0.391 0.943 0.391h0.296c0.327 0 0.642 0.12 0.886 0.337s0.4 0.516 0.438 0.84l1.835 15.6c0.19 1.622 0.97 3.118 2.191 4.204s2.797 1.685 4.431 1.685h13.924c0.354 0 0.693-0.14 0.943-0.39s0.39-0.589 0.39-0.943c0-0.354-0.14-0.693-0.39-0.943s-0.589-0.39-0.943-0.39h-13.924c-0.825-0.002-1.63-0.26-2.303-0.737s-1.182-1.151-1.457-1.929h15.893c1.563 0 3.076-0.549 4.276-1.551s2.008-2.394 2.286-3.933l1.047-5.805c0.105-0.576 0.081-1.168-0.069-1.734s-0.422-1.092-0.798-1.541z"></path>
<path d="M9.333 32c1.473 0 2.667-1.194 2.667-2.667s-1.194-2.667-2.667-2.667-2.667 1.194-2.667 2.667c0 1.473 1.194 2.667 2.667 2.667z"></path>
<path d="M22.667 32c1.473 0 2.667-1.194 2.667-2.667s-1.194-2.667-2.667-2.667c-1.473 0-2.667 1.194-2.667 2.667s1.194 2.667 2.667 2.667z"></path>
</symbol>
</defs>
</svg>
