<svg width="15" height="14" viewBox="0 0 15 14" fill="none" xmlns="http://www.w3.org/2000/svg">
<path d="M11.4092 8.27246C11.2229 8.44743 11.1369 8.70568 11.1806 8.95133L11.8177 12.3947C11.8686 12.6886 11.7468 12.9819 11.4952 13.1506C11.2515 13.3255 10.929 13.3465 10.6567 13.2065L7.4826 11.5898C7.36721 11.5339 7.24538 11.4982 7.12426 11.4982H6.93005C6.85838 11.5052 6.7946 11.5339 6.73655 11.5612L3.56171 13.1855C3.40405 13.2625 3.22488 13.2905 3.05288 13.2625C2.62288 13.1785 2.3441 12.7859 2.41505 12.373L3.05288 8.92964C3.09588 8.67839 3.00988 8.42643 2.82426 8.24447L0.236379 5.79492C0.0213792 5.58496 -0.0574542 5.28332 0.0435958 5.00407C0.136763 4.73042 0.379712 4.52746 0.680713 4.47917L4.24255 3.97456C4.51488 3.94657 4.75138 3.7863 4.87321 3.54834L6.44271 0.405924C6.47855 0.335938 6.52871 0.272249 6.58676 0.21696L6.65055 0.167969C6.67921 0.132275 6.72221 0.10498 6.76593 0.0769857L6.84405 0.0489909L6.96588 0H7.2676C7.53993 0.0279948 7.77643 0.188265 7.89826 0.419222L9.48855 3.54834C9.60321 3.7793 9.82538 3.93327 10.0834 3.97456L13.6452 4.47917C13.9462 4.52116 14.1978 4.72412 14.2974 5.00407C14.3905 5.28332 14.3117 5.59196 14.0895 5.79492L11.4092 8.27246Z" fill="#FFC936"/>
</svg>
